<svg aria-hidden="true" style="position: absolute; width: 0; height: 0; overflow: hidden;" version="1.1" xmlns="http://www.w3.org/2000/svg" xmlns:xlink="http://www.w3.org/1999/xlink">
<defs>
<symbol id="icon-RostMedical" viewBox="0 0 258 32">
<path fill="#1a1e4a" style="fill: var(--color1, #1a1e4a)" d="M0.397 30.4v-2.714h3.994v-23.398h-3.994v-2.714h15.155c2.014 0 3.755 0.29 5.222 0.87 1.468 0.546 2.594 1.382 3.379 2.509 0.785 1.092 1.178 2.475 1.178 4.147 0 1.331-0.256 2.526-0.768 3.584-0.478 1.058-1.263 1.946-2.355 2.662-1.092 0.683-2.526 1.16-4.301 1.434l6.605 10.906h4.25v2.714h-7.117l-7.731-13.21h-3.533v-2.816h4.506c1.672 0 2.952-0.256 3.84-0.768 0.922-0.546 1.553-1.212 1.894-1.997 0.376-0.819 0.563-1.638 0.563-2.458 0-0.887-0.205-1.69-0.614-2.406-0.376-0.751-0.973-1.348-1.792-1.792s-1.877-0.666-3.174-0.666h-7.014v23.398h3.994v2.714h-12.186z"></path>
<path fill="#365e7b" style="fill: var(--color2, #365e7b)" d="M42.234 31.014c-2.15 0-4.045-0.444-5.683-1.331s-2.918-2.133-3.84-3.738c-0.888-1.604-1.331-3.482-1.331-5.632s0.444-4.011 1.331-5.581c0.922-1.604 2.202-2.833 3.84-3.686 1.638-0.887 3.533-1.331 5.683-1.331 2.184 0 4.096 0.444 5.734 1.331 1.638 0.853 2.918 2.082 3.84 3.686 0.922 1.57 1.382 3.413 1.382 5.53 0 2.15-0.461 4.028-1.382 5.632s-2.202 2.867-3.84 3.789c-1.638 0.888-3.55 1.331-5.734 1.331zM42.234 28.045c1.434 0 2.68-0.324 3.738-0.973s1.877-1.553 2.458-2.714c0.58-1.16 0.87-2.526 0.87-4.096 0-1.536-0.29-2.867-0.87-3.994s-1.4-1.997-2.458-2.611c-1.058-0.649-2.304-0.973-3.738-0.973-1.4 0-2.628 0.324-3.686 0.973-1.024 0.614-1.826 1.502-2.406 2.662-0.58 1.126-0.87 2.458-0.87 3.994s0.29 2.884 0.87 4.045c0.58 1.16 1.382 2.065 2.406 2.714 1.058 0.648 2.287 0.973 3.686 0.973zM66.943 30.912c-1.058 0-2.082-0.136-3.072-0.41-0.956-0.273-1.792-0.648-2.509-1.126s-1.263-1.041-1.638-1.69l0.768 0.461v2.253h-2.97v-6.963h2.662l0.307 3.328-0.717-2.406c0.375 1.263 1.212 2.236 2.509 2.918 1.331 0.683 2.714 1.024 4.147 1.024 1.297 0 2.372-0.256 3.226-0.768 0.887-0.512 1.331-1.229 1.331-2.15 0-1.092-0.376-1.843-1.126-2.253-0.717-0.444-1.877-0.836-3.482-1.178l-2.816-0.614c-1.877-0.478-3.362-1.109-4.454-1.894-1.092-0.819-1.638-2.168-1.638-4.045 0-1.809 0.7-3.191 2.099-4.147 1.434-0.99 3.208-1.485 5.325-1.485 0.819 0 1.672 0.119 2.56 0.358 0.922 0.205 1.758 0.529 2.509 0.973s1.28 0.99 1.587 1.638l-0.768-0.256v-2.304h3.021v6.912h-2.662l-0.666-4.864 0.87 3.379c-0.137-0.614-0.529-1.143-1.178-1.587-0.614-0.478-1.348-0.853-2.202-1.126-0.819-0.273-1.638-0.41-2.457-0.41-1.092 0-2.082 0.222-2.97 0.666-0.853 0.444-1.28 1.161-1.28 2.15 0 0.751 0.29 1.331 0.87 1.741 0.614 0.41 1.604 0.785 2.97 1.126l2.611 0.563c1.297 0.307 2.458 0.683 3.482 1.126 1.058 0.41 1.894 1.024 2.509 1.843 0.614 0.785 0.922 1.912 0.922 3.379 0 1.331-0.376 2.44-1.126 3.328-0.717 0.853-1.673 1.485-2.867 1.894-1.161 0.41-2.389 0.614-3.686 0.614zM86.739 30.4c-1.912 0-3.362-0.478-4.352-1.434-0.99-0.99-1.485-2.492-1.485-4.506v-11.469h-3.328v-2.714h3.328v-6.861l3.789-1.485v8.346h5.325v2.714h-5.325v11.264c0 1.263 0.205 2.15 0.614 2.662s1.109 0.768 2.099 0.768h3.072v2.714h-3.738z"></path>
<path fill="#1e4058" style="fill: var(--color3, #1e4058)" d="M93.998 30.4v-2.714h3.891v-23.398h-3.891v-2.714h9.779l9.421 20.224 8.96-20.224h9.933v2.714h-3.891v23.398h3.891v2.714h-11.622v-2.714h3.738v-22.682l-10.854 23.91h-1.331l-11.008-23.91v22.682h3.738v2.714h-10.752zM146.796 31.014c-2.116 0-4.045-0.444-5.786-1.331-1.707-0.888-3.072-2.133-4.096-3.738-0.99-1.604-1.485-3.464-1.485-5.581 0-2.184 0.478-4.062 1.434-5.632 0.956-1.604 2.236-2.833 3.84-3.686 1.604-0.887 3.396-1.331 5.376-1.331 2.048 0 3.806 0.427 5.274 1.28 1.502 0.853 2.645 2.065 3.43 3.635s1.178 3.413 1.178 5.53v0.973h-17.203l0.051-2.355h13.414c0-1.331-0.273-2.458-0.819-3.379-0.512-0.956-1.229-1.673-2.15-2.15-0.922-0.512-1.98-0.768-3.174-0.768-1.263 0-2.406 0.307-3.43 0.922-1.024 0.58-1.843 1.434-2.458 2.56-0.58 1.092-0.87 2.424-0.87 3.994 0 1.672 0.307 3.123 0.922 4.352 0.614 1.195 1.468 2.133 2.56 2.816 1.126 0.648 2.406 0.973 3.84 0.973 1.536 0 2.952-0.307 4.25-0.922s2.423-1.382 3.379-2.304l1.331 2.304c-0.922 1.058-2.116 1.963-3.584 2.714s-3.209 1.126-5.222 1.126zM169.475 30.963c-1.843 0-3.55-0.41-5.12-1.229-1.536-0.853-2.782-2.082-3.738-3.686s-1.434-3.516-1.434-5.734c0-2.287 0.444-4.198 1.332-5.734 0.922-1.57 2.133-2.765 3.635-3.584 1.501-0.819 3.139-1.229 4.915-1.229 1.434 0 2.85 0.273 4.25 0.819 1.434 0.512 2.696 1.246 3.789 2.202l-1.229 0.461v-9.523h-3.584v-2.662h7.373v26.624h3.174v2.714h-6.963v-2.662l1.178 0.205c-0.99 0.956-2.117 1.707-3.379 2.253-1.229 0.512-2.629 0.768-4.198 0.768zM170.294 28.096c1.331 0 2.56-0.256 3.686-0.768 1.16-0.512 2.218-1.195 3.174-2.048l-1.28 1.741v-13.312l1.28 1.843c-1.059-0.922-2.253-1.638-3.584-2.15-1.298-0.512-2.544-0.768-3.738-0.768-1.298 0-2.458 0.307-3.482 0.922-0.99 0.614-1.776 1.519-2.355 2.714-0.581 1.16-0.87 2.611-0.87 4.352 0 1.604 0.323 2.97 0.973 4.096 0.648 1.092 1.501 1.928 2.56 2.509 1.091 0.58 2.304 0.87 3.635 0.87zM185.126 30.4v-2.714h3.891v-14.694h-3.84v-2.714h7.578v17.408h3.635v2.714h-11.264zM190.4 5.875c-0.75 0-1.4-0.239-1.946-0.717-0.546-0.512-0.819-1.143-0.819-1.894s0.274-1.365 0.819-1.843c0.546-0.512 1.195-0.768 1.946-0.768 0.786 0 1.434 0.256 1.946 0.768 0.546 0.478 0.819 1.092 0.819 1.843s-0.274 1.382-0.819 1.894c-0.512 0.478-1.16 0.717-1.946 0.717zM209.938 30.912c-2.115 0-4.010-0.461-5.683-1.382-1.638-0.922-2.934-2.184-3.891-3.789-0.922-1.604-1.382-3.448-1.382-5.53s0.445-3.908 1.331-5.478c0.922-1.57 2.168-2.799 3.738-3.686 1.605-0.887 3.43-1.331 5.478-1.331 1.981 0 3.619 0.444 4.915 1.331 1.298 0.887 2.117 1.98 2.458 3.277h-0.717v-4.147h3.174v7.219h-2.867c-0.307-1.468-1.006-2.611-2.099-3.43-1.058-0.853-2.389-1.28-3.994-1.28-1.467 0-2.765 0.324-3.891 0.973-1.126 0.614-2.013 1.485-2.662 2.611-0.614 1.126-0.922 2.406-0.922 3.84 0 1.536 0.307 2.901 0.922 4.096 0.65 1.16 1.52 2.082 2.611 2.765 1.126 0.648 2.406 0.973 3.84 0.973 1.81 0 3.261-0.341 4.352-1.024 1.126-0.717 2.15-1.604 3.072-2.662l1.587 2.304c-0.989 1.297-2.269 2.355-3.84 3.174-1.57 0.785-3.413 1.178-5.53 1.178zM230.558 30.963c-2.082 0-3.754-0.58-5.018-1.741-1.262-1.16-1.894-2.577-1.894-4.25 0-1.536 0.358-2.765 1.075-3.686 0.752-0.922 1.741-1.587 2.97-1.997s2.578-0.614 4.045-0.614c1.162 0 2.339 0.102 3.533 0.307 1.229 0.171 2.424 0.41 3.584 0.717l-1.536 0.256v-2.714c0-1.604-0.426-2.782-1.28-3.533-0.853-0.751-2.013-1.126-3.482-1.126-0.955 0-2.082 0.171-3.379 0.512-1.262 0.307-2.44 0.751-3.533 1.331l-1.126-2.458c1.195-0.751 2.544-1.297 4.045-1.638 1.502-0.375 2.851-0.563 4.045-0.563 1.776 0 3.294 0.29 4.557 0.87 1.264 0.58 2.219 1.417 2.867 2.509 0.683 1.058 1.024 2.304 1.024 3.738v10.803h3.174v2.714h-6.502l-0.307-2.867h1.434c-1.331 1.16-2.627 2.031-3.891 2.611-1.262 0.546-2.73 0.819-4.403 0.819zM231.122 28.352c1.264 0 2.526-0.273 3.789-0.819 1.264-0.546 2.578-1.382 3.942-2.509l-1.536 1.843v-5.939l1.178 0.922c-0.886-0.273-1.894-0.495-3.021-0.666s-2.286-0.256-3.482-0.256c-1.194 0-2.286 0.273-3.277 0.819-0.989 0.512-1.485 1.519-1.485 3.021 0 1.024 0.342 1.877 1.024 2.56 0.683 0.683 1.638 1.024 2.867 1.024zM246.382 30.4v-2.714h3.738v-23.962h-3.635v-2.662h7.424v26.624h3.277v2.714h-10.803z"></path>
</symbol>
<symbol id="icon-Rost" viewBox="0 0 91 32">
<path fill="#1a1e4a" style="fill: var(--color1, #1a1e4a)" d="M0.397 30.4v-2.714h3.994v-23.398h-3.994v-2.714h15.155c2.014 0 3.755 0.29 5.222 0.87 1.468 0.546 2.594 1.382 3.379 2.509 0.785 1.092 1.178 2.475 1.178 4.147 0 1.331-0.256 2.526-0.768 3.584-0.478 1.058-1.263 1.946-2.355 2.662-1.092 0.683-2.526 1.16-4.301 1.434l6.605 10.906h4.25v2.714h-7.117l-7.731-13.21h-3.533v-2.816h4.506c1.672 0 2.952-0.256 3.84-0.768 0.922-0.546 1.553-1.212 1.894-1.997 0.376-0.819 0.563-1.638 0.563-2.458 0-0.887-0.205-1.69-0.614-2.406-0.376-0.751-0.973-1.348-1.792-1.792s-1.877-0.666-3.174-0.666h-7.014v23.398h3.994v2.714h-12.186z"></path>
<path fill="#365e7b" style="fill: var(--color2, #365e7b)" d="M42.234 31.014c-2.15 0-4.045-0.444-5.683-1.331s-2.918-2.133-3.84-3.738c-0.888-1.604-1.331-3.482-1.331-5.632s0.444-4.011 1.331-5.581c0.922-1.604 2.202-2.833 3.84-3.686 1.638-0.887 3.533-1.331 5.683-1.331 2.184 0 4.096 0.444 5.734 1.331 1.638 0.853 2.918 2.082 3.84 3.686 0.922 1.57 1.382 3.413 1.382 5.53 0 2.15-0.461 4.028-1.382 5.632s-2.202 2.867-3.84 3.789c-1.638 0.888-3.55 1.331-5.734 1.331zM42.234 28.045c1.434 0 2.68-0.324 3.738-0.973s1.877-1.553 2.458-2.714c0.58-1.16 0.87-2.526 0.87-4.096 0-1.536-0.29-2.867-0.87-3.994s-1.4-1.997-2.458-2.611c-1.058-0.649-2.304-0.973-3.738-0.973-1.4 0-2.628 0.324-3.686 0.973-1.024 0.614-1.826 1.502-2.406 2.662-0.58 1.126-0.87 2.458-0.87 3.994s0.29 2.884 0.87 4.045c0.58 1.16 1.382 2.065 2.406 2.714 1.058 0.648 2.287 0.973 3.686 0.973zM66.943 30.912c-1.058 0-2.082-0.136-3.072-0.41-0.956-0.273-1.792-0.648-2.509-1.126s-1.263-1.041-1.638-1.69l0.768 0.461v2.253h-2.97v-6.963h2.662l0.307 3.328-0.717-2.406c0.375 1.263 1.212 2.236 2.509 2.918 1.331 0.683 2.714 1.024 4.147 1.024 1.297 0 2.372-0.256 3.226-0.768 0.887-0.512 1.331-1.229 1.331-2.15 0-1.092-0.376-1.843-1.126-2.253-0.717-0.444-1.877-0.836-3.482-1.178l-2.816-0.614c-1.877-0.478-3.362-1.109-4.454-1.894-1.092-0.819-1.638-2.168-1.638-4.045 0-1.809 0.7-3.191 2.099-4.147 1.434-0.99 3.208-1.485 5.325-1.485 0.819 0 1.672 0.119 2.56 0.358 0.922 0.205 1.758 0.529 2.509 0.973s1.28 0.99 1.587 1.638l-0.768-0.256v-2.304h3.021v6.912h-2.662l-0.666-4.864 0.87 3.379c-0.137-0.614-0.529-1.143-1.178-1.587-0.614-0.478-1.348-0.853-2.202-1.126-0.819-0.273-1.638-0.41-2.457-0.41-1.092 0-2.082 0.222-2.97 0.666-0.853 0.444-1.28 1.161-1.28 2.15 0 0.751 0.29 1.331 0.87 1.741 0.614 0.41 1.604 0.785 2.97 1.126l2.611 0.563c1.297 0.307 2.458 0.683 3.482 1.126 1.058 0.41 1.894 1.024 2.509 1.843 0.614 0.785 0.922 1.912 0.922 3.379 0 1.331-0.376 2.44-1.126 3.328-0.717 0.853-1.673 1.485-2.867 1.894-1.161 0.41-2.389 0.614-3.686 0.614zM86.739 30.4c-1.912 0-3.362-0.478-4.352-1.434-0.99-0.99-1.485-2.492-1.485-4.506v-11.469h-3.328v-2.714h3.328v-6.861l3.789-1.485v8.346h5.325v2.714h-5.325v11.264c0 1.263 0.205 2.15 0.614 2.662s1.109 0.768 2.099 0.768h3.072v2.714h-3.738z"></path>
</symbol>
<symbol id="icon-NiceStudio" viewBox="0 0 111 32">
<path fill="#8d5050" style="fill: var(--color4, #8d5050)" d="M0 0h61.838v32h-61.838v-32z"></path>
<path fill="#000" style="fill: var(--color5, #000)" opacity="0.35" d="M12.108 7.784l16.478 24.973h-32.956l16.478-24.973z"></path>
<path fill="#fff" style="fill: var(--color6, #fff)" d="M31.016 14.739v9.045h-1.090v-11.053h0.903l7.255 9.216v-9.2h1.090v11.037h-1.012l-7.145-9.045zM41.733 23.784v-8.111h1.059v8.111h-1.059zM41.733 13.976v-1.557h1.059v1.557h-1.059zM48.642 23.939c-0.592 0-1.136-0.109-1.635-0.327-0.488-0.228-0.919-0.54-1.292-0.934-0.363-0.394-0.649-0.846-0.856-1.354-0.197-0.509-0.296-1.048-0.296-1.619 0-0.768 0.171-1.469 0.514-2.102s0.82-1.136 1.432-1.51c0.612-0.374 1.318-0.56 2.117-0.56 0.758 0 1.427 0.176 2.008 0.529 0.581 0.343 1.012 0.809 1.292 1.401l-1.027 0.327c-0.228-0.415-0.55-0.737-0.965-0.965-0.405-0.239-0.856-0.358-1.354-0.358-0.54 0-1.033 0.14-1.479 0.42s-0.804 0.664-1.074 1.152c-0.259 0.488-0.389 1.043-0.389 1.666 0 0.612 0.135 1.168 0.405 1.666s0.628 0.898 1.074 1.199c0.446 0.291 0.939 0.436 1.479 0.436 0.353 0 0.69-0.062 1.012-0.187 0.332-0.125 0.617-0.291 0.856-0.498 0.249-0.218 0.415-0.451 0.498-0.701l1.043 0.311c-0.145 0.384-0.389 0.732-0.732 1.043-0.332 0.301-0.727 0.54-1.183 0.716-0.446 0.166-0.929 0.249-1.448 0.249zM57.094 23.939c-0.581 0-1.121-0.109-1.619-0.327-0.498-0.228-0.929-0.535-1.292-0.919-0.363-0.394-0.649-0.846-0.856-1.354-0.197-0.509-0.296-1.053-0.296-1.635 0-0.758 0.171-1.453 0.514-2.086 0.353-0.633 0.835-1.136 1.448-1.51 0.612-0.384 1.308-0.576 2.086-0.576 0.799 0 1.495 0.192 2.086 0.576 0.602 0.384 1.074 0.893 1.417 1.526 0.343 0.623 0.514 1.308 0.514 2.055 0 0.083 0 0.166 0 0.249 0 0.073-0.005 0.13-0.016 0.171h-6.943c0.052 0.581 0.213 1.1 0.483 1.557 0.28 0.446 0.638 0.804 1.074 1.074 0.446 0.259 0.929 0.389 1.448 0.389 0.529 0 1.027-0.135 1.495-0.405 0.477-0.27 0.809-0.623 0.996-1.059l0.919 0.249c-0.166 0.384-0.42 0.732-0.763 1.043s-0.747 0.555-1.214 0.732c-0.457 0.166-0.95 0.249-1.479 0.249zM54.105 19.347h5.993c-0.041-0.592-0.202-1.111-0.483-1.557-0.27-0.446-0.628-0.794-1.074-1.043-0.436-0.259-0.919-0.389-1.448-0.389s-1.012 0.13-1.448 0.389c-0.436 0.249-0.794 0.602-1.074 1.059-0.27 0.446-0.425 0.96-0.467 1.541z"></path>
<path fill="#000" style="fill: var(--color5, #000)" d="M69.407 14.801c-0.156-0.176-0.337-0.332-0.545-0.467-0.208-0.145-0.441-0.27-0.701-0.374s-0.54-0.187-0.841-0.249c-0.291-0.062-0.602-0.093-0.934-0.093-0.965 0-1.676 0.187-2.133 0.56-0.446 0.363-0.669 0.861-0.669 1.495 0 0.436 0.104 0.778 0.311 1.027 0.218 0.249 0.555 0.451 1.012 0.607s1.038 0.317 1.744 0.483c0.789 0.166 1.469 0.363 2.039 0.592s1.012 0.54 1.323 0.934c0.311 0.384 0.467 0.908 0.467 1.572 0 0.509-0.099 0.95-0.296 1.323s-0.472 0.685-0.825 0.934c-0.353 0.249-0.773 0.436-1.261 0.56-0.488 0.114-1.022 0.171-1.603 0.171-0.571 0-1.121-0.057-1.65-0.171-0.519-0.125-1.012-0.301-1.479-0.529-0.467-0.239-0.903-0.54-1.308-0.903l0.545-0.887c0.197 0.208 0.431 0.405 0.701 0.592 0.28 0.176 0.586 0.337 0.918 0.483 0.343 0.145 0.706 0.259 1.090 0.343 0.394 0.073 0.799 0.109 1.214 0.109 0.882 0 1.567-0.161 2.055-0.483 0.498-0.322 0.747-0.799 0.747-1.432 0-0.457-0.125-0.82-0.374-1.090-0.249-0.28-0.623-0.509-1.121-0.685s-1.111-0.348-1.837-0.514c-0.768-0.176-1.417-0.374-1.946-0.592s-0.929-0.503-1.199-0.856c-0.259-0.363-0.389-0.841-0.389-1.432 0-0.685 0.166-1.261 0.498-1.728 0.343-0.477 0.809-0.835 1.401-1.074 0.592-0.249 1.271-0.374 2.039-0.374 0.488 0 0.939 0.052 1.354 0.156 0.425 0.093 0.815 0.233 1.168 0.42 0.363 0.187 0.701 0.42 1.012 0.701l-0.529 0.872zM75.939 23.395c-0.083 0.031-0.213 0.088-0.389 0.171s-0.389 0.156-0.638 0.218c-0.249 0.062-0.519 0.093-0.809 0.093-0.301 0-0.586-0.057-0.856-0.171-0.259-0.114-0.467-0.285-0.623-0.514-0.156-0.239-0.234-0.529-0.234-0.872v-5.807h-1.121v-0.841h1.121v-2.74h1.059v2.74h1.868v0.841h-1.868v5.511c0.021 0.291 0.125 0.509 0.311 0.654 0.197 0.145 0.42 0.218 0.669 0.218 0.291 0 0.555-0.047 0.794-0.14 0.239-0.104 0.384-0.176 0.436-0.218l0.28 0.856zM77.184 20.437v-4.764h1.059v4.577c0 0.924 0.156 1.614 0.467 2.070 0.322 0.457 0.794 0.685 1.417 0.685 0.415 0 0.815-0.088 1.199-0.265 0.394-0.187 0.742-0.446 1.043-0.778 0.301-0.343 0.529-0.737 0.685-1.183v-5.106h1.059v6.834c0 0.145 0.031 0.254 0.093 0.327 0.062 0.062 0.156 0.099 0.28 0.109v0.841c-0.125 0.010-0.223 0.016-0.296 0.016-0.073 0.010-0.14 0.016-0.202 0.016-0.208-0.021-0.389-0.104-0.545-0.249-0.145-0.145-0.223-0.322-0.234-0.529l-0.031-1.090c-0.353 0.623-0.835 1.111-1.448 1.463-0.602 0.353-1.256 0.529-1.962 0.529-0.851 0-1.495-0.296-1.93-0.887s-0.654-1.463-0.654-2.615zM85.961 19.752c0-0.768 0.156-1.469 0.467-2.102 0.322-0.643 0.763-1.157 1.323-1.541s1.199-0.576 1.915-0.576c0.675 0 1.277 0.182 1.806 0.545 0.54 0.353 0.96 0.784 1.261 1.292v-4.95h1.059v10.088c0 0.145 0.031 0.254 0.093 0.327 0.062 0.062 0.156 0.099 0.28 0.109v0.841c-0.208 0.031-0.368 0.041-0.483 0.031-0.218-0.010-0.41-0.099-0.576-0.265s-0.249-0.348-0.249-0.545v-0.794c-0.322 0.529-0.758 0.95-1.308 1.261s-1.121 0.467-1.712 0.467c-0.56 0-1.079-0.114-1.557-0.343-0.467-0.228-0.877-0.54-1.23-0.934-0.343-0.394-0.612-0.841-0.809-1.339-0.187-0.509-0.28-1.033-0.28-1.572zM92.733 20.997v-2.506c-0.135-0.374-0.353-0.711-0.654-1.012-0.301-0.311-0.643-0.555-1.027-0.732-0.374-0.187-0.747-0.28-1.121-0.28-0.436 0-0.83 0.093-1.183 0.28-0.353 0.176-0.659 0.42-0.918 0.732-0.249 0.311-0.441 0.664-0.576 1.059s-0.202 0.799-0.202 1.214c0 0.436 0.073 0.851 0.218 1.245 0.156 0.394 0.374 0.747 0.654 1.059 0.28 0.301 0.602 0.535 0.965 0.701s0.758 0.249 1.183 0.249c0.27 0 0.55-0.052 0.841-0.156s0.566-0.244 0.825-0.42c0.27-0.187 0.493-0.405 0.669-0.654s0.285-0.509 0.327-0.778zM96.189 23.784v-8.111h1.059v8.111h-1.059zM96.189 13.976v-1.557h1.059v1.557h-1.059zM103.036 23.939c-0.581 0-1.121-0.109-1.619-0.327-0.488-0.228-0.913-0.535-1.277-0.919-0.353-0.394-0.628-0.841-0.825-1.339-0.197-0.509-0.296-1.043-0.296-1.603 0-0.581 0.099-1.121 0.296-1.619 0.197-0.509 0.477-0.955 0.841-1.339 0.363-0.394 0.789-0.701 1.277-0.918 0.498-0.228 1.038-0.342 1.619-0.342s1.116 0.114 1.603 0.342c0.488 0.218 0.913 0.524 1.277 0.918 0.363 0.384 0.643 0.83 0.841 1.339 0.197 0.498 0.296 1.038 0.296 1.619 0 0.56-0.099 1.095-0.296 1.603-0.197 0.498-0.477 0.944-0.841 1.339-0.353 0.384-0.778 0.69-1.277 0.919-0.488 0.218-1.027 0.327-1.619 0.327zM100.093 19.767c0 0.602 0.13 1.152 0.389 1.65 0.27 0.488 0.628 0.877 1.074 1.168 0.446 0.28 0.939 0.42 1.479 0.42s1.033-0.145 1.479-0.436c0.446-0.291 0.804-0.685 1.074-1.183 0.27-0.509 0.405-1.059 0.405-1.65 0-0.602-0.135-1.152-0.405-1.65s-0.628-0.893-1.074-1.183c-0.446-0.291-0.939-0.436-1.479-0.436s-1.033 0.151-1.479 0.451c-0.436 0.301-0.789 0.701-1.059 1.199-0.27 0.488-0.405 1.038-0.405 1.65z"></path>
</symbol>
</defs>
</svg>
